# xmcd
#
# Track frame offsets: 
#        150
#        26147
#        46642
#        65770
#        92040
#        113747
#        127100
#        147285
#        169402
#        189692
#        238212
#        254315
#        282037
#
# Disc length: 4338 seconds
#
# Revision: 1
# Processed by: cddbd v1.4PL0 Copyright (c) Steve Scherf et al.
# Submitted via: ExactAudioCopy v0.90b4
#
DISCID=c210f00d
DTITLE=Bonepony - Fun House
DYEAR=2002
DGENRE=Blues
TTITLE0=Bleecker Street
TTITLE1=Blue, Blue, Blue
TTITLE2=East Texas Rhythm
TTITLE3=Old Song
TTITLE4=Bayou Sky
TTITLE5=Banks of Divine
TTITLE6=I Stand Amazed
TTITLE7=Everybody Sing
TTITLE8=What's Inside
TTITLE9=Feast of Life
TTITLE10=Salvation Song
TTITLE11=Sugar on the Pill
TTITLE12=Heathers Wetter
EXTD=
EXTT0=
EXTT1=
EXTT2=
EXTT3=
EXTT4=
EXTT5=
EXTT6=
EXTT7=
EXTT8=
EXTT9=
EXTT10=
EXTT11=
EXTT12=
PLAYORDER=
